<?xml version="1.0" standalone="no"?>
<!DOCTYPE svg PUBLIC "-//W3C//DTD SVG 20010904//EN"
 "http://www.w3.org/TR/2001/REC-SVG-20010904/DTD/svg10.dtd">
<svg version="1.0" xmlns="http://www.w3.org/2000/svg"
 width="189.000000pt" height="189.000000pt" viewBox="0 0 189.000000 189.000000"
 preserveAspectRatio="xMidYMid meet">
<metadata>
Created by potrace 1.14, written by Peter Selinger 2001-2017
</metadata>
<g transform="translate(0.000000,189.000000) scale(0.100000,-0.100000)"
fill="#000000" stroke="none">
<path d="M765 1733 c-45 -10 -157 -56 -210 -85 -11 -7 -33 -18 -48 -26 -37
-18 -200 -181 -219 -219 -8 -15 -23 -44 -33 -63 -75 -143 -85 -187 -85 -369 0
-129 4 -169 19 -217 25 -78 68 -173 86 -191 8 -8 15 -20 15 -26 0 -20 150
-172 209 -212 83 -57 205 -105 306 -121 68 -10 214 -14 588 -14 l497 0 0 70 0
70 -246 0 -246 0 70 65 c39 36 84 87 101 113 17 26 35 53 42 60 6 7 28 55 49
105 53 127 69 265 47 417 -8 61 -25 128 -39 160 -14 30 -30 69 -37 87 -7 17
-21 39 -32 49 -10 9 -19 23 -19 30 0 19 -173 189 -216 212 -75 40 -130 64
-196 88 -61 22 -83 24 -225 23 -87 -1 -167 -3 -178 -6z"/>
</g>
</svg>
