<?xml version="1.0" standalone="no"?>
<!DOCTYPE svg PUBLIC "-//W3C//DTD SVG 20010904//EN"
 "http://www.w3.org/TR/2001/REC-SVG-20010904/DTD/svg10.dtd">
<svg version="1.0" xmlns="http://www.w3.org/2000/svg"
 width="512.000000pt" height="512.000000pt" viewBox="0 0 512.000000 512.000000"
 preserveAspectRatio="xMidYMid meet">
<metadata>
Created by potrace 1.14, written by Peter Selinger 2001-2017
</metadata>
<g transform="translate(0.000000,512.000000) scale(0.100000,-0.100000)"
fill="#000000" stroke="none">
<path d="M1377 4604 c-1 -1 -31 -5 -67 -8 -224 -22 -449 -148 -593 -331 -26
-33 -52 -65 -57 -71 -22 -29 -80 -157 -103 -229 -14 -45 -29 -112 -33 -150
-10 -95 -11 -2407 -1 -2520 27 -301 204 -566 477 -712 30 -17 73 -36 95 -43
22 -7 45 -16 50 -20 11 -7 117 -28 180 -35 62 -7 2453 -7 2515 0 30 3 73 11
95 17 22 5 47 12 56 13 38 8 159 61 222 99 175 105 321 292 386 496 21 65 25
87 36 170 8 59 8 2425 0 2510 -6 68 -7 75 -19 125 -79 313 -330 576 -621 652
-139 36 -126 35 -1388 37 -676 0 -1229 0 -1230 0z"/>
</g>
</svg>
