<?xml version="1.0" encoding="utf-8"?>
<!-- Generator: Adobe Illustrator 19.2.1, SVG Export Plug-In . SVG Version: 6.00 Build 0)  -->
<svg version="1.1" id="layer" xmlns="http://www.w3.org/2000/svg" xmlns:xlink="http://www.w3.org/1999/xlink" x="0px" y="0px"
	 viewBox="0 0 652 652" style="enable-background:new 0 0 652 652;" xml:space="preserve">
<style type="text/css">
	.st0{fill:#FF8000;}
	.st1{fill:#00E054;}
	.st2{fill:#FFFFFF;}
	.st3{fill:#40BCF4;}
	.st4{fill:url(#SVGID_1_);}
</style>
<rect x="21.5" y="220.5" width="600" height="200"/>
<circle class="st0" cx="68.5" cy="320.5" r="25.3"/>
<circle class="st1" cx="111.9" cy="320.5" r="25.3"/>
<path class="st2" d="M90.2,307.5c2.4,3.9,3.6,8.4,3.6,13c0,4.6-1.2,9.1-3.6,13c-2.3-3.8-3.6-8.3-3.6-13c0-4.4,1.1-8.8,3.3-12.6
	L90.2,307.5z"/>
<circle class="st3" cx="155.2" cy="320.5" r="25.3"/>
<path class="st2" d="M133.5,307.5c2.4,3.9,3.6,8.4,3.6,13c0,4.6-1.2,9.1-3.6,13c-2.3-3.8-3.6-8.3-3.6-13c0-4.4,1.1-8.8,3.3-12.6
	L133.5,307.5z"/>
<linearGradient id="SVGID_1_" gradientUnits="userSpaceOnUse" x1="-152.1543" y1="595.3671" x2="-152.1543" y2="593.0048" gradientTransform="matrix(161.39 0 0 -23 24957.6719 13984)">
	<stop  offset="0" style="stop-color:#FFFFFF"/>
	<stop  offset="1" style="stop-color:#E2E6E9"/>
</linearGradient>
<path class="st4" d="M266.2,302.9c14.5,0,20.6,9.4,20.6,20.5v4.6h-28.9c0.6,4.9,3.5,7.6,8.4,7.6c3.6,0,5.6-1.6,6.6-3.9h13.6
	c-2.3,8.6-8.6,14-20.5,14c-14.2,0-20.8-7.9-20.8-20.5v-1.2C245.2,310.9,253.4,302.9,266.2,302.9L266.2,302.9z M370.7,302.9
	c14.5,0,20.6,9.4,20.6,20.5v4.6h-28.9c0.6,4.9,3.5,7.6,8.4,7.6c3.6,0,5.6-1.6,6.6-3.9h13.6c-2.3,8.6-8.6,14-20.5,14
	c-14.2,0-20.8-7.9-20.8-20.5v-1.2C349.7,310.9,358,302.9,370.7,302.9L370.7,302.9z M441.2,290.4v20c2.2-4.7,6.3-7.4,12-7.4
	c9.2,0.1,16,6.4,16,20.2v1.3c0,13.9-6.1,21.4-16.2,21.4c-6.2,0-10.2-3.1-12.2-7.9l-1,6.8h-11.2v-54.4H441.2L441.2,290.4z
	 M493.8,302.9c12.3,0,20.6,7.3,20.6,21v1.3c0,13.6-8.2,20.5-20.7,20.5c-13.3,0-20.6-6.9-20.6-20.5V324
	C473.1,310.1,481.7,302.9,493.8,302.9L493.8,302.9z M595.9,290.4v54.4H585l-1.2-7.1c-2,4.8-6.1,7.9-12.4,7.9
	c-9.9,0-16.1-7.1-16.1-21.2v-1.2c0-13.8,6.8-20.1,16.2-20.1c5.9,0,9.8,2.5,11.9,6.6v-19.3H595.9z M220.3,294.1v38h21.3v12.6H207
	v-50.6H220.3z M307.6,293.6v10.2h10.1c1.4,0,2.7-0.1,4-0.4c2.6-0.4,3.6-1.5,4-4.9c0.2-1.7,0.4-3.2,0.4-4.9h10.6v10.2h9.7v11.4h-9.7
	v9.8c0,7.1,1.1,7.8,7.1,7.8h2.6v11.9h-6.5c-12.4,0-15.4-4.4-15.4-17.2v-12.4h-17.1v9.8c0,7.1,1.1,7.8,7.1,7.8h2.6v11.9h-6.5
	c-12.4,0-15.4-4.4-15.4-17.2v-12.4h-6.9v-10.7c1.6,0,2.6-0.1,4-0.4c2.6-0.4,3.6-1.5,4-4.9c0.2-1.7,0.4-3.9,0.4-5.6L307.6,293.6
	L307.6,293.6z M423.9,303.2v13.5h-4.8c-7.5,0-9.3,2.6-9.3,9.9v18.1h-13.1v-40.9h10.3l1.8,8.4c1.3-6.4,5.5-9,12.9-9H423.9
	L423.9,303.2z M528.2,303.8l6.7,10.4l6.7-10.4h14.5l-13.6,19.5l14.5,21.5h-14.7l-7.5-11.6l-7.5,11.6h-15.1l15.1-21.3l-13.7-19.6
	L528.2,303.8L528.2,303.8z M493.8,313.8c-4.8,0-8,3.3-8,10.2v1.1c0,6.3,3.2,9.6,7.9,9.6c4.7,0,7.8-3.2,7.8-9.6V324
	C501.6,317.3,498.8,313.8,493.8,313.8z M448.8,313.6c-4.7,0-7.8,3.6-7.8,9.6v0.9c0,7.1,3.1,10.4,7.8,10.4c4.7,0,7.6-3,7.6-10.2v-1
	C456.4,316.9,453.3,313.6,448.8,313.6z M575.8,313.6c-4.8,0-7.6,3.3-7.6,9.7v0.9c0,7.3,3,10.3,7.4,10.3c4.7,0,7.8-3.4,7.8-10.3v-0.9
	C583.4,317.1,580.4,313.6,575.8,313.6z M266.3,312.7c-4.8,0-7.6,2.5-8.4,7.3h16.2C273.5,315.4,271.1,312.7,266.3,312.7z
	 M370.9,312.7c-4.8,0-7.6,2.5-8.4,7.3h16.2C378.1,315.4,375.7,312.7,370.9,312.7z"/>
</svg>
